<?xml version="1.0" encoding="UTF-8"?><svg xmlns="http://www.w3.org/2000/svg" xmlns:xlink="http://www.w3.org/1999/xlink" viewBox="0 0 181.41 153.95"><defs><style>.f{fill:url(#e);}.g{fill:url(#d);}</style><linearGradient id="d" x1="-10.16" y1="76.97" x2="110.86" y2="76.97" gradientTransform="matrix(1, 0, 0, 1, 0, 0)" gradientUnits="userSpaceOnUse"><stop offset="0" stop-color="#fff33b"/><stop offset=".04" stop-color="#fee62d"/><stop offset=".12" stop-color="#fdd51b"/><stop offset=".2" stop-color="#fdca0f"/><stop offset=".28" stop-color="#fdc70c"/><stop offset=".67" stop-color="#f3903f"/><stop offset=".89" stop-color="#ed683c"/><stop offset="1" stop-color="#e93e3a"/></linearGradient><linearGradient id="e" x1="100.5" y1="107.21" x2="189.58" y2="106.71" xlink:href="#d"/></defs><g id="a"/><g id="b"><g id="c"><g><path class="g" d="M57.23,68.91c-6.99,1.14-13.25,3.21-18.8,6.06-2.75,1.48-5.35,3.03-7.66,4.83-2.31,1.77-4.41,3.63-6.1,5.64-.39,.53-.8,1.01-1.2,1.49l-1.06,1.5c-.33,.5-.62,1.04-.94,1.54-.3,.51-.53,1.06-.8,1.56-.97,2.08-1.68,4.12-1.99,6.15-.28,2.03-.36,3.95-.11,5.76,.24,1.82,.8,3.48,1.43,5.01,.66,1.48,1.58,2.99,2.74,4.46,1.13,1.49,2.46,3,4.05,4.41,3.2,2.78,7.05,5.47,11.4,7.47,.53,.26,1.08,.5,1.64,.73,.55,.24,1.09,.51,1.61,.7,1.03,.44,2.12,.82,3.21,1.18,2.19,.7,4.44,1.25,6.65,1.58,2.2,.36,4.34,.56,6.31,.54,1.97,.03,3.76-.16,5.26-.47,1.53-.29,2.65-.69,3.71-1.21,1.03-.49,1.83-1.07,2.71-1.83,.89-.76,1.81-1.82,2.71-3.29,.9-1.47,1.73-3.33,2.58-5.46,.41-1.07,.79-2.22,1.15-3.43,.18-.6,.33-1.24,.51-1.86,.16-.66,.31-1.43,.46-2.14,.3-1.45,.62-2.89,.97-4.34l.84-4.44c.32-1.47,.5-3,.72-4.52,.21-1.53,.46-3.03,.65-4.59l.6-4.66c.19-1.56,.3-3.16,.46-4.75,.3-3.16,.56-6.43,.83-9.68l.61-9.94,1.16-20.47c.48-6.93,.99-13.99,1.86-21.06,.84-7.07,1.99-14.2,3.81-21.22l2.45-.16c1.13,13.64,3.11,27.2,5.02,40.81,.91,6.81,1.79,13.64,2.49,20.51,.39,3.43,.64,6.87,.94,10.32l.32,5.18c.12,1.73,.19,3.46,.23,5.19,.3,6.92,.15,13.89-.39,20.83l-.47,5.2-.71,5.18c-.43,3.45-1.15,6.95-2.1,10.37-1.91,6.83-5.05,13.61-10.12,19-2.52,2.69-5.49,4.97-8.73,6.74-3.24,1.75-6.76,2.97-10.32,3.71-7.16,1.44-14.47,1.06-21.44-.38-6.97-1.47-13.7-4.09-19.83-7.66-6.14-3.56-11.8-8.04-16.44-13.53-4.63-5.46-8.2-12.05-9.52-19.28-1.34-7.19-.38-14.76,2.63-21.37,3-6.62,7.94-12.25,13.86-16.28,5.95-3.99,12.68-6.56,19.59-7.94,6.92-1.35,14.09-1.42,21.01-.1l-.44,2.41Z"/><path class="f" d="M112.56,68.27c.86,7.59,2.88,14.09,5.96,20.06,1.49,2.98,3.17,5.83,4.99,8.6,1.87,2.75,3.81,5.43,5.86,8.06,2.05,2.64,4.2,5.16,6.43,7.75,2.24,2.6,4.53,5.14,6.82,7.66,2.31,2.51,4.63,4.99,7,7.41,1.19,1.21,2.36,2.43,3.57,3.61l.44,.44c.07,.07,.13,.13,.13,.12,.01,.01-.11-.13-.62-.46-.23-.14-.63-.38-1.12-.57-.55-.23-1.2-.42-2.07-.55-.84-.12-1.84-.11-2.77,.06-.94,.17-1.86,.5-2.52,.84-1.36,.71-1.89,1.35-2.12,1.58-.21,.24-.17,.23,.06-.09l1.35-1.91,1.35-1.97,1.32-2.04c1.77-2.74,3.46-5.62,5.14-8.55,3.35-5.87,6.57-11.97,9.71-18.18,3.12-6.21,6.23-12.51,9.12-18.95,1.47-3.21,2.84-6.46,4.12-9.78,.63-1.66,1.22-3.33,1.71-5.05,.51-1.72,.92-3.46,.98-5.36,1.18,1.53,1.87,3.45,2.41,5.33,.51,1.89,.89,3.83,1.11,5.76,.49,3.86,.54,7.72,.41,11.55-.17,3.82-.53,7.61-1.1,11.36-.53,3.76-1.28,7.48-2.17,11.16-1.77,7.37-4.19,14.58-7.25,21.65-1.54,3.53-3.26,7.02-5.21,10.46-.99,1.72-2.04,3.42-3.14,5.13l-1.75,2.53c-.3,.42-.8,1.13-1.61,2.04-.83,.9-2.05,2.15-4.21,3.28-1.06,.55-2.42,1.04-3.8,1.28-1.38,.25-2.83,.26-4.12,.08-1.32-.18-2.4-.52-3.37-.9-.91-.37-1.71-.8-2.32-1.19-1.28-.81-2.09-1.53-2.74-2.13-.33-.31-.59-.57-.84-.82l-.5-.53c-1.31-1.4-2.61-2.8-3.87-4.25-2.52-2.89-4.92-5.87-7.17-8.96-2.27-3.07-4.38-6.26-6.37-9.51-1.96-3.28-3.91-6.71-5.52-10.3-3.28-7.14-5.71-14.89-6.36-22.92-.7-7.96,.69-16.29,4.65-22.81Z"/></g></g></g></svg>